<?xml version="1.0" encoding="UTF-8" standalone="no"?>
<!DOCTYPE svg PUBLIC "-//W3C//DTD SVG 1.1//EN"
 "http://www.w3.org/Graphics/SVG/1.1/DTD/svg11.dtd">
<!-- Generated by graphviz version 2.43.0 (0)
 -->
<!-- Title: classes_RobotController Pages: 1 -->
<svg width="2441pt" height="874pt"
 viewBox="0.00 0.00 2440.50 874.00" xmlns="http://www.w3.org/2000/svg" xmlns:xlink="http://www.w3.org/1999/xlink">
<g id="graph0" class="graph" transform="scale(1 1) rotate(0) translate(4 870)">
<title>classes_RobotController</title>
<polygon fill="white" stroke="transparent" points="-4,4 -4,-870 2436.5,-870 2436.5,4 -4,4"/>
<!-- database_manager.DatabaseManager -->
<g id="node1" class="node">
<title>database_manager.DatabaseManager</title>
<polygon fill="none" stroke="black" points="0,-135.5 0,-249.5 720,-249.5 720,-135.5 0,-135.5"/>
<text text-anchor="start" x="294.5" y="-234.3" font-family="Times,serif" font-size="14.00">DatabaseManager</text>
<polyline fill="none" stroke="black" points="0,-226.5 720,-226.5 "/>
<text text-anchor="start" x="311" y="-211.3" font-family="Times,serif" font-size="14.00">db_name : str</text>
<polyline fill="none" stroke="black" points="0,-203.5 720,-203.5 "/>
<text text-anchor="start" x="8" y="-188.3" font-family="Times,serif" font-size="14.00">get_all_zones()</text>
<text text-anchor="start" x="8" y="-173.3" font-family="Times,serif" font-size="14.00">get_zone_by_name(name)</text>
<text text-anchor="start" x="8" y="-158.3" font-family="Times,serif" font-size="14.00">save_mowing_history(zone_id, routes, duration_minutes, energy_used_wh, obstacles_encountered)</text>
<text text-anchor="start" x="8" y="-143.3" font-family="Times,serif" font-size="14.00">save_zone(name, perimeter_vectors)</text>
</g>
<!-- lidar_ld06_manager.LD06LidarManager -->
<g id="node2" class="node">
<title>lidar_ld06_manager.LD06LidarManager</title>
<polygon fill="none" stroke="black" points="738,-0.5 738,-384.5 1088,-384.5 1088,-0.5 738,-0.5"/>
<text text-anchor="start" x="843" y="-369.3" font-family="Times,serif" font-size="14.00">LD06LidarManager</text>
<polyline fill="none" stroke="black" points="738,-361.5 1088,-361.5 "/>
<text text-anchor="start" x="785.5" y="-346.3" font-family="Times,serif" font-size="14.00">baudrate : int</text>
<text text-anchor="start" x="785.5" y="-331.3" font-family="Times,serif" font-size="14.00">current_scan : dict</text>
<text text-anchor="start" x="785.5" y="-316.3" font-family="Times,serif" font-size="14.00">data_lock : lock</text>
<text text-anchor="start" x="785.5" y="-301.3" font-family="Times,serif" font-size="14.00">is_running : bool</text>
<text text-anchor="start" x="785.5" y="-286.3" font-family="Times,serif" font-size="14.00">last_full_scan : dict</text>
<text text-anchor="start" x="785.5" y="-271.3" font-family="Times,serif" font-size="14.00">obstacle_callback : NoneType</text>
<text text-anchor="start" x="785.5" y="-256.3" font-family="Times,serif" font-size="14.00">port : str</text>
<text text-anchor="start" x="785.5" y="-241.3" font-family="Times,serif" font-size="14.00">read_thread : NoneType, Thread</text>
<text text-anchor="start" x="785.5" y="-226.3" font-family="Times,serif" font-size="14.00">scan_complete_callback : NoneType</text>
<text text-anchor="start" x="785.5" y="-211.3" font-family="Times,serif" font-size="14.00">scan_count : int</text>
<text text-anchor="start" x="785.5" y="-196.3" font-family="Times,serif" font-size="14.00">scan_history : deque</text>
<text text-anchor="start" x="785.5" y="-181.3" font-family="Times,serif" font-size="14.00">serial_connection : NoneType</text>
<text text-anchor="start" x="785.5" y="-166.3" font-family="Times,serif" font-size="14.00">total_points : int</text>
<polyline fill="none" stroke="black" points="738,-158.5 1088,-158.5 "/>
<text text-anchor="start" x="746" y="-143.3" font-family="Times,serif" font-size="14.00">cleanup()</text>
<text text-anchor="start" x="746" y="-128.3" font-family="Times,serif" font-size="14.00">connect()</text>
<text text-anchor="start" x="746" y="-113.3" font-family="Times,serif" font-size="14.00">get_current_scan()</text>
<text text-anchor="start" x="746" y="-98.3" font-family="Times,serif" font-size="14.00">get_distance_at_angle(target_angle, tolerance)</text>
<text text-anchor="start" x="746" y="-83.3" font-family="Times,serif" font-size="14.00">get_front_distance()</text>
<text text-anchor="start" x="746" y="-68.3" font-family="Times,serif" font-size="14.00">get_statistics()</text>
<text text-anchor="start" x="746" y="-53.3" font-family="Times,serif" font-size="14.00">set_obstacle_callback(callback)</text>
<text text-anchor="start" x="746" y="-38.3" font-family="Times,serif" font-size="14.00">set_scan_callback(callback)</text>
<text text-anchor="start" x="746" y="-23.3" font-family="Times,serif" font-size="14.00">start_scanning()</text>
<text text-anchor="start" x="746" y="-8.3" font-family="Times,serif" font-size="14.00">stop_scanning()</text>
</g>
<!-- lidar_ld06_manager.RobotWithLidar -->
<g id="node5" class="node">
<title>lidar_ld06_manager.RobotWithLidar</title>
<polygon fill="none" stroke="black" points="746.5,-549 746.5,-753 1079.5,-753 1079.5,-549 746.5,-549"/>
<text text-anchor="start" x="856" y="-737.8" font-family="Times,serif" font-size="14.00">RobotWithLidar</text>
<polyline fill="none" stroke="black" points="746.5,-730 1079.5,-730 "/>
<text text-anchor="start" x="791" y="-714.8" font-family="Times,serif" font-size="14.00">autonomous_mode : bool</text>
<text text-anchor="start" x="791" y="-699.8" font-family="Times,serif" font-size="14.00">lidar</text>
<text text-anchor="start" x="791" y="-684.8" font-family="Times,serif" font-size="14.00">obstacle_avoidance_enabled : bool</text>
<text text-anchor="start" x="791" y="-669.8" font-family="Times,serif" font-size="14.00">robot</text>
<polyline fill="none" stroke="black" points="746.5,-662 1079.5,-662 "/>
<text text-anchor="start" x="754.5" y="-646.8" font-family="Times,serif" font-size="14.00">avoid_obstacle(obstacle_distance)</text>
<text text-anchor="start" x="754.5" y="-631.8" font-family="Times,serif" font-size="14.00">cleanup()</text>
<text text-anchor="start" x="754.5" y="-616.8" font-family="Times,serif" font-size="14.00">get_lidar_stats()</text>
<text text-anchor="start" x="754.5" y="-601.8" font-family="Times,serif" font-size="14.00">on_obstacle_detected(distance, angles_data)</text>
<text text-anchor="start" x="754.5" y="-586.8" font-family="Times,serif" font-size="14.00">on_scan_complete(scan_data)</text>
<text text-anchor="start" x="754.5" y="-571.8" font-family="Times,serif" font-size="14.00">start_lidar()</text>
<text text-anchor="start" x="754.5" y="-556.8" font-family="Times,serif" font-size="14.00">stop_lidar()</text>
</g>
<!-- lidar_ld06_manager.LD06LidarManager&#45;&gt;lidar_ld06_manager.RobotWithLidar -->
<g id="edge2" class="edge">
<title>lidar_ld06_manager.LD06LidarManager&#45;&gt;lidar_ld06_manager.RobotWithLidar</title>
<path fill="none" stroke="black" d="M913,-384.78C913,-436.56 913,-490.94 913,-536.89"/>
<polygon fill="black" stroke="black" points="913,-536.99 917,-542.99 913,-548.99 909,-542.99 913,-536.99"/>
<text text-anchor="middle" x="930" y="-406.8" font-family="Times,serif" font-size="14.00" fill="green">lidar</text>
</g>
<!-- robot_controller_class.RobotController -->
<g id="node3" class="node">
<title>robot_controller_class.RobotController</title>
<polygon fill="none" stroke="black" points="1252.5,-436.5 1252.5,-865.5 1807.5,-865.5 1807.5,-436.5 1252.5,-436.5"/>
<text text-anchor="start" x="1472.5" y="-850.3" font-family="Times,serif" font-size="14.00">RobotController</text>
<polyline fill="none" stroke="black" points="1252.5,-842.5 1807.5,-842.5 "/>
<text text-anchor="start" x="1403.5" y="-827.3" font-family="Times,serif" font-size="14.00">ACCEL_DURATION_S : float</text>
<text text-anchor="start" x="1403.5" y="-812.3" font-family="Times,serif" font-size="14.00">MAX_SPEED_KMH : float</text>
<text text-anchor="start" x="1403.5" y="-797.3" font-family="Times,serif" font-size="14.00">MIN_SPEED_KMH : float</text>
<text text-anchor="start" x="1403.5" y="-782.3" font-family="Times,serif" font-size="14.00">RAMP_STEPS : int</text>
<text text-anchor="start" x="1403.5" y="-767.3" font-family="Times,serif" font-size="14.00">STEPS_PER_CM : int</text>
<text text-anchor="start" x="1403.5" y="-752.3" font-family="Times,serif" font-size="14.00">WHEELBASE_CM : float</text>
<text text-anchor="start" x="1403.5" y="-737.3" font-family="Times,serif" font-size="14.00">current_speed_kmh : float</text>
<text text-anchor="start" x="1403.5" y="-722.3" font-family="Times,serif" font-size="14.00">current_thread : NoneType, Thread</text>
<text text-anchor="start" x="1403.5" y="-707.3" font-family="Times,serif" font-size="14.00">motor_droit</text>
<text text-anchor="start" x="1403.5" y="-692.3" font-family="Times,serif" font-size="14.00">motor_gauche</text>
<text text-anchor="start" x="1403.5" y="-677.3" font-family="Times,serif" font-size="14.00">pause_event : Event</text>
<text text-anchor="start" x="1403.5" y="-662.3" font-family="Times,serif" font-size="14.00">pi</text>
<text text-anchor="start" x="1403.5" y="-647.3" font-family="Times,serif" font-size="14.00">ramp_thread : NoneType, Thread</text>
<text text-anchor="start" x="1403.5" y="-632.3" font-family="Times,serif" font-size="14.00">speed_converter</text>
<text text-anchor="start" x="1403.5" y="-617.3" font-family="Times,serif" font-size="14.00">stop_event : Event</text>
<polyline fill="none" stroke="black" points="1252.5,-609.5 1807.5,-609.5 "/>
<text text-anchor="start" x="1260.5" y="-594.3" font-family="Times,serif" font-size="14.00">cleanup()</text>
<text text-anchor="start" x="1260.5" y="-579.3" font-family="Times,serif" font-size="14.00">make_turn(speed_kmh, diameter_cm, angle_deg)</text>
<text text-anchor="start" x="1260.5" y="-564.3" font-family="Times,serif" font-size="14.00">move_backward(speed_kmh)</text>
<text text-anchor="start" x="1260.5" y="-549.3" font-family="Times,serif" font-size="14.00">move_for_distance(speed_kmh, distance_cm)</text>
<text text-anchor="start" x="1260.5" y="-534.3" font-family="Times,serif" font-size="14.00">move_forward(speed_kmh)</text>
<text text-anchor="start" x="1260.5" y="-519.3" font-family="Times,serif" font-size="14.00">pause()</text>
<text text-anchor="start" x="1260.5" y="-504.3" font-family="Times,serif" font-size="14.00">resume()</text>
<text text-anchor="start" x="1260.5" y="-489.3" font-family="Times,serif" font-size="14.00">select_type_rotate(angle_IHM, diametre_IHM, direction_IHM, vitesse_IHM)</text>
<text text-anchor="start" x="1260.5" y="-474.3" font-family="Times,serif" font-size="14.00">stop()</text>
<text text-anchor="start" x="1260.5" y="-459.3" font-family="Times,serif" font-size="14.00">turn_on_spot_for_angle(speed_kmh, angle_deg)</text>
<text text-anchor="start" x="1260.5" y="-444.3" font-family="Times,serif" font-size="14.00">update_speed(speed_kmh)</text>
</g>
<!-- temp.RobotController -->
<g id="node4" class="node">
<title>temp.RobotController</title>
<polygon fill="none" stroke="black" points="1877.5,-150.5 1877.5,-234.5 2432.5,-234.5 2432.5,-150.5 1877.5,-150.5"/>
<text text-anchor="start" x="2097.5" y="-219.3" font-family="Times,serif" font-size="14.00">RobotController</text>
<polyline fill="none" stroke="black" points="1877.5,-211.5 2432.5,-211.5 "/>
<text text-anchor="start" x="2062.5" y="-196.3" font-family="Times,serif" font-size="14.00">current_speed_kmh : float</text>
<text text-anchor="start" x="2062.5" y="-181.3" font-family="Times,serif" font-size="14.00">ramp_thread</text>
<polyline fill="none" stroke="black" points="1877.5,-173.5 2432.5,-173.5 "/>
<text text-anchor="start" x="1885.5" y="-158.3" font-family="Times,serif" font-size="14.00">select_type_rotate(angle_IHM, diametre_IHM, direction_IHM, vitesse_IHM)</text>
</g>
<!-- SpeedConverter.SpeedConverter -->
<g id="node6" class="node">
<title>SpeedConverter.SpeedConverter</title>
<polygon fill="none" stroke="black" points="1106.5,-150.5 1106.5,-234.5 1431.5,-234.5 1431.5,-150.5 1106.5,-150.5"/>
<text text-anchor="start" x="1210.5" y="-219.3" font-family="Times,serif" font-size="14.00">SpeedConverter</text>
<polyline fill="none" stroke="black" points="1106.5,-211.5 1431.5,-211.5 "/>
<text text-anchor="start" x="1195" y="-196.3" font-family="Times,serif" font-size="14.00">steps_per_rev</text>
<text text-anchor="start" x="1195" y="-181.3" font-family="Times,serif" font-size="14.00">wheel_diameter_mm</text>
<polyline fill="none" stroke="black" points="1106.5,-173.5 1431.5,-173.5 "/>
<text text-anchor="start" x="1114.5" y="-158.3" font-family="Times,serif" font-size="14.00">convert_kmh_to_steps_per_sec(speed_kmh)</text>
</g>
<!-- SpeedConverter.SpeedConverter&#45;&gt;robot_controller_class.RobotController -->
<g id="edge1" class="edge">
<title>SpeedConverter.SpeedConverter&#45;&gt;robot_controller_class.RobotController</title>
<path fill="none" stroke="black" d="M1292.62,-234.82C1317.86,-278.96 1359.89,-352.48 1401.64,-425.49"/>
<polygon fill="black" stroke="black" points="1401.83,-425.83 1408.29,-429.06 1407.79,-436.25 1401.34,-433.03 1401.83,-425.83"/>
<text text-anchor="middle" x="1451" y="-406.8" font-family="Times,serif" font-size="14.00" fill="green">speed_converter</text>
</g>
<!-- stepper_motor_class.StepperMotor -->
<g id="node7" class="node">
<title>stepper_motor_class.StepperMotor</title>
<polygon fill="none" stroke="black" points="1449,-45.5 1449,-339.5 1859,-339.5 1859,-45.5 1449,-45.5"/>
<text text-anchor="start" x="1603.5" y="-324.3" font-family="Times,serif" font-size="14.00">StepperMotor</text>
<polyline fill="none" stroke="black" points="1449,-316.5 1859,-316.5 "/>
<text text-anchor="start" x="1532.5" y="-301.3" font-family="Times,serif" font-size="14.00">DELAY : float</text>
<text text-anchor="start" x="1532.5" y="-286.3" font-family="Times,serif" font-size="14.00">DIR_PIN</text>
<text text-anchor="start" x="1532.5" y="-271.3" font-family="Times,serif" font-size="14.00">EN_PIN</text>
<text text-anchor="start" x="1532.5" y="-256.3" font-family="Times,serif" font-size="14.00">STEPS_PER_ADJUSTED_REV : int</text>
<text text-anchor="start" x="1532.5" y="-241.3" font-family="Times,serif" font-size="14.00">STEPS_PER_REV : int</text>
<text text-anchor="start" x="1532.5" y="-226.3" font-family="Times,serif" font-size="14.00">STEP_PIN</text>
<text text-anchor="start" x="1532.5" y="-211.3" font-family="Times,serif" font-size="14.00">current_thread : NoneType</text>
<text text-anchor="start" x="1532.5" y="-196.3" font-family="Times,serif" font-size="14.00">pi</text>
<polyline fill="none" stroke="black" points="1449,-188.5 1859,-188.5 "/>
<text text-anchor="start" x="1457" y="-173.3" font-family="Times,serif" font-size="14.00">cleanup()</text>
<text text-anchor="start" x="1457" y="-158.3" font-family="Times,serif" font-size="14.00">disable()</text>
<text text-anchor="start" x="1457" y="-143.3" font-family="Times,serif" font-size="14.00">enable()</text>
<text text-anchor="start" x="1457" y="-128.3" font-family="Times,serif" font-size="14.00">get_speed()</text>
<text text-anchor="start" x="1457" y="-113.3" font-family="Times,serif" font-size="14.00">move_continuously(direction, stop_event, pause_event)</text>
<text text-anchor="start" x="1457" y="-98.3" font-family="Times,serif" font-size="14.00">move_steps(steps)</text>
<text text-anchor="start" x="1457" y="-83.3" font-family="Times,serif" font-size="14.00">set_dir(direction)</text>
<text text-anchor="start" x="1457" y="-68.3" font-family="Times,serif" font-size="14.00">set_speed(delay)</text>
<text text-anchor="start" x="1457" y="-53.3" font-family="Times,serif" font-size="14.00">stop_moving()</text>
</g>
<!-- stepper_motor_class.StepperMotor&#45;&gt;robot_controller_class.RobotController -->
<g id="edge3" class="edge">
<title>stepper_motor_class.StepperMotor&#45;&gt;robot_controller_class.RobotController</title>
<path fill="none" stroke="black" d="M1555.49,-339.7C1545.48,-360.24 1536.85,-381.64 1531,-403 1529.07,-410.04 1527.39,-417.24 1525.94,-424.53"/>
<polygon fill="black" stroke="black" points="1525.92,-424.68 1528.79,-431.3 1523.78,-436.49 1520.91,-429.87 1525.92,-424.68"/>
<text text-anchor="middle" x="1581.5" y="-406.8" font-family="Times,serif" font-size="14.00" fill="green">motor_gauche</text>
</g>
<!-- stepper_motor_class.StepperMotor&#45;&gt;robot_controller_class.RobotController -->
<g id="edge4" class="edge">
<title>stepper_motor_class.StepperMotor&#45;&gt;robot_controller_class.RobotController</title>
<path fill="none" stroke="black" d="M1646.45,-339.61C1643.18,-365.96 1638.54,-392.99 1632,-418 1631.43,-420.18 1630.84,-422.37 1630.24,-424.56"/>
<polygon fill="black" stroke="black" points="1630.17,-424.78 1632.35,-431.65 1626.84,-436.3 1624.66,-429.43 1630.17,-424.78"/>
<text text-anchor="middle" x="1676.5" y="-406.8" font-family="Times,serif" font-size="14.00" fill="green">motor_droit</text>
</g>
</g>
</svg>
