<?xml version="1.0" encoding="UTF-8" standalone="no"?>
<!DOCTYPE svg PUBLIC "-//W3C//DTD SVG 1.1//EN"
 "http://www.w3.org/Graphics/SVG/1.1/DTD/svg11.dtd">
<!-- Generated by graphviz version 2.43.0 (0)
 -->
<!-- Title: packages_RobotController Pages: 1 -->
<svg width="952pt" height="116pt"
 viewBox="0.00 0.00 951.50 116.00" xmlns="http://www.w3.org/2000/svg" xmlns:xlink="http://www.w3.org/1999/xlink">
<g id="graph0" class="graph" transform="scale(1 1) rotate(0) translate(4 112)">
<title>packages_RobotController</title>
<polygon fill="white" stroke="transparent" points="-4,4 -4,-112 947.5,-112 947.5,4 -4,4"/>
<!-- SpeedConverter -->
<g id="node1" class="node">
<title>SpeedConverter</title>
<polygon fill="none" stroke="black" points="133,-108 0,-108 0,-72 133,-72 133,-108"/>
<text text-anchor="middle" x="66.5" y="-86.3" font-family="Times,serif" font-size="14.00">SpeedConverter</text>
</g>
<!-- database_manager -->
<g id="node2" class="node">
<title>database_manager</title>
<polygon fill="none" stroke="black" points="405,-36 254,-36 254,0 405,0 405,-36"/>
<text text-anchor="middle" x="329.5" y="-14.3" font-family="Times,serif" font-size="14.00">database_manager</text>
</g>
<!-- esp32_connect_test -->
<g id="node3" class="node">
<title>esp32_connect_test</title>
<polygon fill="none" stroke="black" points="579.5,-36 423.5,-36 423.5,0 579.5,0 579.5,-36"/>
<text text-anchor="middle" x="501.5" y="-14.3" font-family="Times,serif" font-size="14.00">esp32_connect_test</text>
</g>
<!-- lidar_ld06_manager -->
<g id="node4" class="node">
<title>lidar_ld06_manager</title>
<polygon fill="none" stroke="black" points="755.5,-36 597.5,-36 597.5,0 755.5,0 755.5,-36"/>
<text text-anchor="middle" x="676.5" y="-14.3" font-family="Times,serif" font-size="14.00">lidar_ld06_manager</text>
</g>
<!-- robot_controller_class -->
<g id="node5" class="node">
<title>robot_controller_class</title>
<polygon fill="none" stroke="black" points="236,-36 63,-36 63,0 236,0 236,-36"/>
<text text-anchor="middle" x="149.5" y="-14.3" font-family="Times,serif" font-size="14.00">robot_controller_class</text>
</g>
<!-- robot_controller_class&#45;&gt;SpeedConverter -->
<g id="edge1" class="edge">
<title>robot_controller_class&#45;&gt;SpeedConverter</title>
<path fill="none" stroke="black" d="M128.98,-36.3C118.63,-45.03 105.91,-55.76 94.66,-65.25"/>
<polygon fill="black" stroke="black" points="86.78,-71.9 91.52,-62.01 90.6,-68.67 94.43,-65.45 94.43,-65.45 94.43,-65.45 90.6,-68.67 97.33,-68.89 86.78,-71.9 86.78,-71.9"/>
</g>
<!-- stepper_motor_class -->
<g id="node6" class="node">
<title>stepper_motor_class</title>
<polygon fill="none" stroke="black" points="314,-108 151,-108 151,-72 314,-72 314,-108"/>
<text text-anchor="middle" x="232.5" y="-86.3" font-family="Times,serif" font-size="14.00">stepper_motor_class</text>
</g>
<!-- robot_controller_class&#45;&gt;stepper_motor_class -->
<g id="edge2" class="edge">
<title>robot_controller_class&#45;&gt;stepper_motor_class</title>
<path fill="none" stroke="black" d="M170.02,-36.3C180.37,-45.03 193.09,-55.76 204.34,-65.25"/>
<polygon fill="black" stroke="black" points="212.22,-71.9 201.67,-68.89 208.4,-68.67 204.57,-65.45 204.57,-65.45 204.57,-65.45 208.4,-68.67 207.48,-62.01 212.22,-71.9 212.22,-71.9"/>
</g>
<!-- test_parcours_avance -->
<g id="node7" class="node">
<title>test_parcours_avance</title>
<polygon fill="none" stroke="black" points="943.5,-36 773.5,-36 773.5,0 943.5,0 943.5,-36"/>
<text text-anchor="middle" x="858.5" y="-14.3" font-family="Times,serif" font-size="14.00">test_parcours_avance</text>
</g>
</g>
</svg>
