<?xml version="1.0" encoding="UTF-8" standalone="no"?>
<!DOCTYPE svg PUBLIC "-//W3C//DTD SVG 1.1//EN"
 "http://www.w3.org/Graphics/SVG/1.1/DTD/svg11.dtd">
<!-- Generated by graphviz version 2.43.0 (0)
 -->
<!-- Title: packages_RobotController Pages: 1 -->
<svg width="591pt" height="188pt"
 viewBox="0.00 0.00 590.50 188.00" xmlns="http://www.w3.org/2000/svg" xmlns:xlink="http://www.w3.org/1999/xlink">
<g id="graph0" class="graph" transform="scale(1 1) rotate(0) translate(4 184)">
<title>packages_RobotController</title>
<polygon fill="white" stroke="transparent" points="-4,4 -4,-184 586.5,-184 586.5,4 -4,4"/>
<!-- SpeedConverter -->
<g id="node1" class="node">
<title>SpeedConverter</title>
<polygon fill="none" stroke="black" points="239,-180 106,-180 106,-144 239,-144 239,-180"/>
<text text-anchor="middle" x="172.5" y="-158.3" font-family="Times,serif" font-size="14.00">SpeedConverter</text>
</g>
<!-- database_manager -->
<g id="node2" class="node">
<title>database_manager</title>
<polygon fill="none" stroke="black" points="151,-108 0,-108 0,-72 151,-72 151,-108"/>
<text text-anchor="middle" x="75.5" y="-86.3" font-family="Times,serif" font-size="14.00">database_manager</text>
</g>
<!-- esp32_connect_test -->
<g id="node3" class="node">
<title>esp32_connect_test</title>
<polygon fill="none" stroke="black" points="406.5,-36 250.5,-36 250.5,0 406.5,0 406.5,-36"/>
<text text-anchor="middle" x="328.5" y="-14.3" font-family="Times,serif" font-size="14.00">esp32_connect_test</text>
</g>
<!-- lidar_ld06_manager -->
<g id="node4" class="node">
<title>lidar_ld06_manager</title>
<polygon fill="none" stroke="black" points="582.5,-36 424.5,-36 424.5,0 582.5,0 582.5,-36"/>
<text text-anchor="middle" x="503.5" y="-14.3" font-family="Times,serif" font-size="14.00">lidar_ld06_manager</text>
</g>
<!-- robot_controller_class -->
<g id="node5" class="node">
<title>robot_controller_class</title>
<polygon fill="none" stroke="black" points="342,-108 169,-108 169,-72 342,-72 342,-108"/>
<text text-anchor="middle" x="255.5" y="-86.3" font-family="Times,serif" font-size="14.00">robot_controller_class</text>
</g>
<!-- robot_controller_class&#45;&gt;SpeedConverter -->
<g id="edge1" class="edge">
<title>robot_controller_class&#45;&gt;SpeedConverter</title>
<path fill="none" stroke="black" d="M234.98,-108.3C224.63,-117.03 211.91,-127.76 200.66,-137.25"/>
<polygon fill="black" stroke="black" points="192.78,-143.9 197.52,-134.01 196.6,-140.67 200.43,-137.45 200.43,-137.45 200.43,-137.45 196.6,-140.67 203.33,-140.89 192.78,-143.9 192.78,-143.9"/>
</g>
<!-- stepper_motor_class -->
<g id="node7" class="node">
<title>stepper_motor_class</title>
<polygon fill="none" stroke="black" points="420,-180 257,-180 257,-144 420,-144 420,-180"/>
<text text-anchor="middle" x="338.5" y="-158.3" font-family="Times,serif" font-size="14.00">stepper_motor_class</text>
</g>
<!-- robot_controller_class&#45;&gt;stepper_motor_class -->
<g id="edge2" class="edge">
<title>robot_controller_class&#45;&gt;stepper_motor_class</title>
<path fill="none" stroke="black" d="M276.02,-108.3C286.37,-117.03 299.09,-127.76 310.34,-137.25"/>
<polygon fill="black" stroke="black" points="318.22,-143.9 307.67,-140.89 314.4,-140.67 310.57,-137.45 310.57,-137.45 310.57,-137.45 314.4,-140.67 313.48,-134.01 318.22,-143.9 318.22,-143.9"/>
</g>
<!-- server_for_robot -->
<g id="node6" class="node">
<title>server_for_robot</title>
<polygon fill="none" stroke="black" points="232.5,-36 98.5,-36 98.5,0 232.5,0 232.5,-36"/>
<text text-anchor="middle" x="165.5" y="-14.3" font-family="Times,serif" font-size="14.00">server_for_robot</text>
</g>
<!-- server_for_robot&#45;&gt;database_manager -->
<g id="edge3" class="edge">
<title>server_for_robot&#45;&gt;database_manager</title>
<path fill="none" stroke="black" d="M143.25,-36.3C131.92,-45.12 117.97,-55.97 105.68,-65.53"/>
<polygon fill="black" stroke="black" points="97.49,-71.9 102.62,-62.2 101.44,-68.83 105.38,-65.76 105.38,-65.76 105.38,-65.76 101.44,-68.83 108.15,-69.31 97.49,-71.9 97.49,-71.9"/>
</g>
<!-- server_for_robot&#45;&gt;robot_controller_class -->
<g id="edge4" class="edge">
<title>server_for_robot&#45;&gt;robot_controller_class</title>
<path fill="none" stroke="black" d="M187.75,-36.3C199.08,-45.12 213.03,-55.97 225.32,-65.53"/>
<polygon fill="black" stroke="black" points="233.51,-71.9 222.85,-69.31 229.56,-68.83 225.62,-65.76 225.62,-65.76 225.62,-65.76 229.56,-68.83 228.38,-62.2 233.51,-71.9 233.51,-71.9"/>
</g>
</g>
</svg>
